{"accessors" : [{"bufferView" : 0, "byteOffset" : 0, "componentType" : 5123, "count" : 11484, "type" : "SCALAR", "max" : [9647], "min" : [0]}, {"bufferView" : 1, "byteOffset" : 0, "componentType" : 5126, "count" : 9648, "type" : "VEC3", "max" : [0.7419049739837646, 0.9248819947242737, 0.7210429906845093], "min" : [-0.5853449702262878, -0.10764700174331665, -0.7395349740982056], "name" : "POSITION"}, {"bufferView" : 1, "byteOffset" : 12, "componentType" : 5126, "count" : 9648, "type" : "VEC2", "max" : [0.9982579946517944, 0.9986510276794434], "min" : [0.008767000399529934, 0.0004959702491760254], "name" : "TEXCOORD_0"}, {"bufferView" : 1, "byteOffset" : 20, "componentType" : 5126, "count" : 9648, "type" : "VEC3", "max" : [1.0000044107437134, 1.0000044107437134, 1.0000044107437134], "min" : [-1.0000044107437134, -1.0000044107437134, -1.0000044107437134], "name" : "NORMAL"}], "asset" : {"generator" : "Aspose.3D 23.6.0", "version" : "2.0"}, "buffers" : [{"uri" : "data:application/octet-stream;base64,", "byteLength" : 390464}], "bufferViews" : [{"buffer" : 0, "byteOffset" : 0, "byteLength" : 22968, "target" : 34963}, {"buffer" : 0, "byteOffset" : 22972, "byteLength" : 367488, "byteStride" : 32, "target" : 34962}], "materials" : [{"name" : "Texture1", "pbrMetallicRoughness" : {"baseColorFactor" : [0.800000011920929, 0.800000011920929, 0.800000011920929, 1], "metallicFactor" : 0, "roughnessFactor" : 0.5}, "emissiveFactor" : [0, 0, 0], "alphaMode" : "OPAQUE", "doubleSided" : true}], "meshes" : [{"primitives" : [{"attributes" : {"POSITION" : 1, "TEXCOORD_0" : 2, "NORMAL" : 3}, "indices" : 0, "material" : 0, "mode" : 4}]}], "nodes" : [{"matrix" : [1, 0, 0, 0, 0, -1.3435885648505064E-07, 1.0000001343588565, 0, 0, -1.0000001343588565, -1.3435885648505064E-07, 0, 0, 0, 0, 1], "mesh" : 0, "name" : "mesh_all1_Texture1_0"}], "scene" : 0, "scenes" : [{"nodes" : [0]}]}